<?xml version="1.0" encoding="UTF-8" standalone="no"?>
<!-- Created with Inkscape (http://www.inkscape.org/) -->

<svg
   width="900"
   height="500"
   viewBox="0 0 238.125 132.29167"
   version="1.1"
   id="svg1"
   inkscape:version="1.3.2 (091e20e, 2023-11-25, custom)"
   sodipodi:docname="about_banner.svg"
   xml:space="preserve"
   xmlns:inkscape="http://www.inkscape.org/namespaces/inkscape"
   xmlns:sodipodi="http://sodipodi.sourceforge.net/DTD/sodipodi-0.dtd"
   xmlns="http://www.w3.org/2000/svg"
   xmlns:svg="http://www.w3.org/2000/svg"><sodipodi:namedview
     id="namedview1"
     pagecolor="#505050"
     bordercolor="#ffffff"
     borderopacity="1"
     inkscape:showpageshadow="0"
     inkscape:pageopacity="0"
     inkscape:pagecheckerboard="1"
     inkscape:deskcolor="#505050"
     inkscape:document-units="mm"
     inkscape:zoom="0.35055065"
     inkscape:cx="205.39115"
     inkscape:cy="-164.02765"
     inkscape:window-width="1920"
     inkscape:window-height="1001"
     inkscape:window-x="-9"
     inkscape:window-y="-9"
     inkscape:window-maximized="1"
     inkscape:current-layer="g1" /><defs
     id="defs1" /><g
     inkscape:label="Шар 1"
     inkscape:groupmode="layer"
     id="layer1"><g
       id="g1"
       transform="matrix(1.0574109,0,0,0.71408289,-54.209695,18.215304)"
       style="fill:#000000"><rect
         style="fill:#000000;stroke-width:0.605102"
         id="rect1"
         width="223.03304"
         height="5.6607366"
         x="52.456161"
         y="10.189326"
         ry="0.0041695265" /><rect
         style="fill:#000000;stroke-width:0.512126"
         id="rect1-9"
         width="159.75911"
         height="5.6607366"
         x="83.485626"
         y="48.753284"
         ry="0.0041695265" /><rect
         style="fill:#000000;stroke-width:0.230468"
         id="rect1-9-2"
         width="80.886177"
         height="2.2642944"
         x="90.312607"
         y="75.941154"
         ry="0.0016678104" /><rect
         style="fill:#000000;stroke-width:0.230468"
         id="rect1-9-2-0"
         width="80.886177"
         height="2.2642944"
         x="89.843704"
         y="81.731567"
         ry="0.0016678104" /><rect
         style="fill:#000000;stroke-width:0.230468"
         id="rect1-9-2-0-4"
         width="80.886177"
         height="2.2642944"
         x="89.741051"
         y="87.458046"
         ry="0.0016678104" /><rect
         style="fill:#000000;stroke-width:0.311215"
         id="rect1-9-2-0-4-37"
         width="147.49419"
         height="2.2642944"
         x="90.192741"
         y="99.128311"
         ry="0.0016678104" /><rect
         style="fill:#000000;stroke-width:0.311215"
         id="rect1-9-2-0-4-37-3"
         width="147.49419"
         height="2.2642944"
         x="90.330475"
         y="105.45387"
         ry="0.0016678104" /><rect
         style="fill:#000000;stroke-width:0.311215"
         id="rect1-9-2-0-4-37-3-0"
         width="147.49419"
         height="2.2642944"
         x="90.490067"
         y="111.76281"
         ry="0.0016678104" /><rect
         style="fill:#000000;stroke-width:0.230468"
         id="rect1-9-2-0-4-3"
         width="80.886177"
         height="2.2642944"
         x="90.10022"
         y="93.31604"
         ry="0.0016678104" /><rect
         style="fill:#000000;stroke-width:0.255024"
         id="rect1-9-4"
         width="27.662954"
         height="8.1067791"
         x="62.272057"
         y="26.032265"
         ry="1.6284925" /><rect
         style="fill:#000000;stroke-width:0.255024"
         id="rect1-9-4-1"
         width="27.662954"
         height="8.1067791"
         x="107.13912"
         y="25.47797"
         ry="1.6284925" /><rect
         style="fill:#000000;stroke-width:0.255024"
         id="rect1-9-4-1-8"
         width="27.662954"
         height="8.1067791"
         x="153.62367"
         y="24.909819"
         ry="1.6284925" /><rect
         style="fill:#000000;stroke-width:0.255024"
         id="rect1-9-4-1-8-9"
         width="27.662954"
         height="8.1067791"
         x="200.96381"
         y="24.497606"
         ry="1.6284925" /><rect
         style="fill:#000000;stroke-width:0.255024"
         id="rect1-9-4-1-8-9-5"
         width="27.662954"
         height="8.1067791"
         x="239.62155"
         y="24.606249"
         ry="1.6284925" /><rect
         style="fill:#000000;stroke-width:0.295482"
         id="rect1-9-4-1-8-9-5-9"
         width="37.136116"
         height="8.1067791"
         x="89.095131"
         y="63.440231"
         ry="1.6284925" /><rect
         style="fill:#000000;stroke-width:0.286756"
         id="rect1-9-4-1-8-9-5-9-4"
         width="37.136116"
         height="7.6350513"
         x="91.44342"
         y="117.58057"
         ry="1.5337316" /><rect
         style="fill:#000000;stroke-width:0.761772"
         id="rect1-9-4-1-8-9-5-9-8"
         width="61.665977"
         height="32.447948"
         x="174.17538"
         y="62.99577"
         ry="6.5181546" /><rect
         style="fill:#000000;stroke-width:0.216432"
         id="rect1-2"
         width="223.08725"
         height="0.72401708"
         x="52.382427"
         y="125.19592"
         ry="0.00053328899" /><rect
         style="fill:#000000;stroke-width:0.213565"
         id="rect1-0"
         width="1.4141208"
         height="111.21392"
         x="52.414761"
         y="14.236791"
         ry="0.081916794" /><rect
         style="fill:#000000;stroke-width:0.172527"
         id="rect1-0-0"
         width="1.4141208"
         height="72.579567"
         x="83.480087"
         y="52.722633"
         ry="0.053459901" /><rect
         style="fill:#000000;stroke-width:0.171732"
         id="rect1-0-0-7"
         width="1.4141208"
         height="71.912445"
         x="241.82295"
         y="53.693615"
         ry="0.052968517" /><rect
         style="fill:#000000;stroke-width:0.21243"
         id="rect1-0-8"
         width="1.4141208"
         height="110.0346"
         x="274.0755"
         y="15.58158"
         ry="0.081048146" /><path
         style="fill:#000000;fill-opacity:1;stroke-width:3.26201"
         d="m 504.1639,351.23313 c -3.49393,-1.76508 -7.80194,-5.39016 -9.57335,-8.05573 -3.16941,-4.76924 -3.22075,-5.54912 -3.22075,-48.92255 0,-48.99135 0.0178,-49.09655 9.51447,-56.34102 l 5.23849,-3.99613 98.60714,-0.38484 98.60713,-0.38484 6.26445,3.31272 c 4.2991,2.27342 7.29488,5.26129 9.5489,9.52372 3.20917,6.06862 3.28446,7.15519 3.28446,47.39598 0,44.77409 -0.32968,47.00041 -8.02571,54.19613 -2.25394,2.10741 -5.90493,4.51434 -8.11333,5.34873 -2.69173,1.01701 -35.6202,1.51707 -99.89727,1.51707 H 510.5165 Z"
         id="path2"
         transform="matrix(0.26458333,0,0,0.26458333,44.53113,1.5095299)" /><path
         style="fill:#000000;fill-opacity:1;stroke-width:1.15329"
         d="M 30.004832,251.38502 V 33.03053 H 451.33319 872.66156 v 181.54184 181.54185 h -2.52142 -2.52141 V 225.16231 54.210412 H 451.33319 35.047661 V 260.9664 467.72239 H 91.275205 147.50275 V 323.24534 178.76829 h 301.56117 301.56117 v 144.47705 144.47705 h 53.45399 c 53.11778,0 53.45399,0.006 53.45399,1.00856 0,1.00775 -0.33621,1.00857 -413.76412,1.00857 H 30.004832 Z M 746.08655,333.83528 V 199.94817 H 449.31606 152.54558 v 133.88711 133.88711 h 296.77048 296.77049 z"
         id="path3"
         transform="matrix(0.26458333,0,0,0.26458333,44.53113,1.5095299)" /><path
         style="fill:#000000;fill-opacity:1;stroke-width:0.815503"
         d="m 180.21572,466.49534 c -0.6664,-0.44286 -1.57267,-1.51986 -2.01394,-2.39334 -0.77218,-1.52852 -0.80231,-1.94473 -0.80231,-11.08422 0,-9.22496 0.0234,-9.5404 0.82112,-11.04882 0.56123,-1.06131 1.31256,-1.81264 2.37387,-2.37387 l 1.55275,-0.82111 h 65.3206 65.3206 l 1.57156,0.81791 c 1.11797,0.58184 1.80641,1.27653 2.38529,2.40692 0.79839,1.55906 0.81184,1.77845 0.71316,11.63706 -0.0956,9.553 -0.13732,10.09761 -0.84652,11.05404 -0.41027,0.5533 -1.27643,1.36703 -1.92478,1.8083 l -1.17884,0.80231 h -66.04047 -66.04047 z"
         id="path4"
         transform="matrix(0.26458333,0,0,0.26458333,44.53113,1.5095299)" /><path
         style="fill:#000000;fill-opacity:1;stroke-width:0.815503"
         d="m 173.83366,421.12317 v -4.10069 h 269.39759 269.39759 v 4.10069 4.10069 H 443.23125 173.83366 Z"
         id="path5"
         transform="matrix(0.26458333,0,0,0.26458333,44.53113,1.5095299)" /><path
         style="fill:#000000;fill-opacity:1;stroke-width:0.815503"
         d="m 173.12049,397.23219 v -4.10069 h 269.75418 269.75417 v 4.10069 4.10069 H 442.87467 173.12049 Z"
         id="path6"
         transform="matrix(0.26458333,0,0,0.26458333,44.53113,1.5095299)" /><path
         style="fill:#000000;fill-opacity:1;stroke-width:0.815503"
         d="m 172.76391,373.3412 v -4.10069 h 269.93247 269.93246 v 4.10069 4.1007 H 442.69638 172.76391 Z"
         id="path7"
         transform="matrix(0.26458333,0,0,0.26458333,44.53113,1.5095299)" /><path
         style="fill:#000000;fill-opacity:1;stroke-width:0.815503"
         d="m 172.40733,351.23313 v -4.10069 H 325.02436 477.6414 v 4.10069 4.10069 H 325.02436 172.40733 Z"
         id="path8"
         transform="matrix(0.26458333,0,0,0.26458333,44.53113,1.5095299)" /><path
         style="fill:#000000;fill-opacity:1;stroke-width:0.815503"
         d="m 170.981,329.12505 v -4.10069 h 152.79533 152.79532 v 4.10069 4.1007 H 323.77633 170.981 Z"
         id="path9"
         transform="matrix(0.26458333,0,0,0.26458333,44.53113,1.5095299)" /><path
         style="fill:#000000;fill-opacity:1;stroke-width:0.815503"
         d="m 171.68394,263.6607 c -0.69205,-0.40236 -1.65482,-1.31028 -2.13949,-2.01762 l -0.88123,-1.28607 v -10.90187 c 0,-10.7564 0.0109,-10.91948 0.82028,-12.22109 0.45116,-0.72556 1.41393,-1.68833 2.13949,-2.13949 l 1.31921,-0.82028 h 65.61106 c 61.79926,0 65.67732,0.0362 66.75152,0.62364 0.62726,0.34301 1.59003,1.21274 2.13949,1.93275 l 0.99904,1.30909 0.10474,10.54448 c 0.11851,11.92938 -0.0215,12.80196 -2.33743,14.56845 l -1.27756,0.97447 -65.99543,0.0825 c -65.97588,0.0825 -65.9958,0.0823 -67.25369,-0.649 z"
         id="path10"
         transform="matrix(0.26458333,0,0,0.26458333,44.53113,1.5095299)" /><path
         style="fill:#000000;fill-opacity:1;stroke-width:0.815503"
         d="m 173.12049,285.62207 v -4.10069 h 152.79533 152.79532 v 4.10069 4.10069 H 325.91582 173.12049 Z"
         id="path11"
         transform="matrix(0.26458333,0,0,0.26458333,44.53113,1.5095299)" /><path
         style="fill:#000000;fill-opacity:1;stroke-width:0.815503"
         d="m 171.33758,307.37356 v -4.10069 h 152.79533 152.79532 v 4.10069 4.10069 H 324.13291 171.33758 Z"
         id="path12"
         transform="matrix(0.26458333,0,0,0.26458333,44.53113,1.5095299)" /><path
         style="fill:#000000;fill-opacity:1;stroke-width:0.288324"
         d="m 712.71105,397.21734 -0.0332,-4.12882 -66.25017,-0.0632 -66.25016,-0.0632 75.16966,-0.0313 75.16967,-0.0313 v 4.22337 4.22337 h -8.88625 -8.88628 z"
         id="path13"
         transform="matrix(0.26458333,0,0,0.26458333,44.53113,1.5095299)" /><path
         style="fill:#000000;fill-opacity:1;stroke-width:0.288324"
         d="m 712.74084,373.29553 v -4.09717 l -66.28168,-0.0318 -66.28168,-0.0318 74.91752,-0.0314 74.91753,-0.0314 v 4.16033 4.16033 h -8.63584 -8.63585 z"
         id="path14"
         transform="matrix(0.26458333,0,0,0.26458333,44.53113,1.5095299)" /><path
         style="fill:#000000;fill-opacity:1;stroke-width:0.288324"
         d="m 712.74084,421.07622 v -4.0973 h -66.25016 c -44.08273,0 -66.25017,-0.0422 -66.25017,-0.12607 0,-0.0839 25.23516,-0.12607 75.45333,-0.12607 h 75.45333 v 4.22337 4.22337 h -9.20316 -9.20317 z"
         id="path15"
         transform="matrix(0.26458333,0,0,0.26458333,44.53113,1.5095299)" /><path
         style="fill:#000000;fill-opacity:1;stroke-width:1.63101"
         d="m 739.51835,115.56494 c -1.70786,-1.70787 -1.75049,-2.01949 -1.75049,-12.79718 0,-10.648737 0.062,-11.118769 1.72091,-13.047654 l 1.7209,-2.000969 46.59594,-0.214745 c 32.74013,-0.150889 47.40762,0.0216 49.32557,0.580059 4.20302,1.22382 4.94465,3.739432 4.64566,15.758019 -0.22927,9.21582 -0.34578,9.903 -1.97259,11.63366 l -1.72893,1.8393 h -48.40324 -48.40323 z"
         id="path16"
         transform="matrix(0.26458333,0,0,0.26458333,44.53113,1.5095299)" /><path
         style="fill:#000000;fill-opacity:1;stroke-width:1.63101"
         d="m 593.66861,115.24548 -2.09931,-2.09931 v -11.14132 c 0,-10.87816 0.0413,-11.182655 1.75049,-12.891802 l 1.7505,-1.750493 h 48.40323 48.40323 l 1.72894,1.840365 c 1.68007,1.788349 1.72893,2.160688 1.72893,13.17372 0,10.84253 -0.0703,11.4037 -1.62415,12.95778 l -1.62415,1.62443 -48.1592,0.19297 -48.1592,0.19297 z"
         id="path17"
         transform="matrix(0.26458333,0,0,0.26458333,44.53113,1.5095299)" /><path
         style="fill:#000000;fill-opacity:1;stroke-width:1.63101"
         d="m 414.64984,116.65713 -2.08463,-2.08464 V 103.76532 92.958147 l 2.08463,-2.084632 2.08463,-2.084633 h 47.89169 47.89169 l 2.08463,2.084633 2.08463,2.084632 v 10.807173 10.80717 l -2.08463,2.08464 -2.08463,2.08463 h -47.89169 -47.89169 z"
         id="path18"
         transform="matrix(0.26458333,0,0,0.26458333,44.53113,1.5095299)" /><path
         style="fill:#000000;fill-opacity:1;stroke-width:2.30659"
         d="m 68.958109,120.87288 c -0.995161,-1.19909 -1.384201,-4.90698 -1.384201,-13.19265 0,-10.244261 0.21753,-11.683862 1.957757,-12.956347 1.625968,-1.188936 10.103047,-1.431547 50.019835,-1.431547 45.28089,0 48.15866,0.10673 49.73124,1.844405 2.37882,2.62857 2.44681,23.456579 0.0843,25.819109 -1.39706,1.39707 -7.35872,1.58489 -50.30479,1.58489 -44.088648,0 -48.851491,-0.15854 -50.104111,-1.66786 z"
         id="path19"
         transform="matrix(0.26458333,0,0,0.26458333,44.53113,1.5095299)" /><path
         style="fill:#000000;fill-opacity:1;stroke-width:2.30659"
         d="m 239.10213,118.93872 c -2.30684,-2.30684 -2.30684,-23.771782 0,-26.078626 1.39666,-1.396653 7.31756,-1.584889 49.85197,-1.584889 42.53441,0 48.45531,0.188236 49.85197,1.584889 2.30684,2.306844 2.30684,23.771786 0,26.078626 -1.39666,1.39666 -7.31756,1.58489 -49.85197,1.58489 -42.53441,0 -48.45531,-0.18823 -49.85197,-1.58489 z"
         id="path20"
         transform="matrix(0.26458333,0,0,0.26458333,44.53113,1.5095299)" /></g></g></svg>
