<?xml version="1.0" encoding="UTF-8" standalone="no"?>
<!-- Created with Inkscape (http://www.inkscape.org/) -->

<svg
   width="900"
   height="500"
   viewBox="0 0 238.125 132.29167"
   version="1.1"
   id="svg1"
   inkscape:version="1.3.2 (091e20e, 2023-11-25, custom)"
   sodipodi:docname="classmates_banner.svg"
   xml:space="preserve"
   xmlns:inkscape="http://www.inkscape.org/namespaces/inkscape"
   xmlns:sodipodi="http://sodipodi.sourceforge.net/DTD/sodipodi-0.dtd"
   xmlns="http://www.w3.org/2000/svg"
   xmlns:svg="http://www.w3.org/2000/svg"><sodipodi:namedview
     id="namedview1"
     pagecolor="#505050"
     bordercolor="#ffffff"
     borderopacity="1"
     inkscape:showpageshadow="0"
     inkscape:pageopacity="0"
     inkscape:pagecheckerboard="1"
     inkscape:deskcolor="#505050"
     inkscape:document-units="mm"
     inkscape:zoom="0.99150697"
     inkscape:cx="399.39205"
     inkscape:cy="246.59433"
     inkscape:window-width="1920"
     inkscape:window-height="1001"
     inkscape:window-x="-9"
     inkscape:window-y="-9"
     inkscape:window-maximized="1"
     inkscape:current-layer="layer1" /><defs
     id="defs1" /><g
     inkscape:label="Шар 1"
     inkscape:groupmode="layer"
     id="layer1"><rect
       style="fill:#000000;stroke-width:0.525805"
       id="rect1"
       width="235.83757"
       height="4.0422349"
       x="1.258022"
       y="25.491327"
       ry="0.0029773875" /><rect
       style="fill:#000000;stroke-width:0.445013"
       id="rect1-9"
       width="168.93103"
       height="4.0422349"
       x="34.068916"
       y="53.02919"
       ry="0.0029773875" /><rect
       style="fill:#000000;stroke-width:0.141864"
       id="rect1-9-2-0-4-37-3-0"
       width="42.919151"
       height="1.6168939"
       x="156.23514"
       y="66.391914"
       ry="0.0011909548" /><rect
       style="fill:#000000;stroke-width:0.148938"
       id="rect1-9-2-0-4-37-3-0-5"
       width="47.306221"
       height="1.6168939"
       x="151.91685"
       y="69.75087"
       ry="0.0011909548" /><rect
       style="fill:#000000;stroke-width:0.148938"
       id="rect1-9-2-0-4-37-3-0-5-3"
       width="47.306221"
       height="1.6168939"
       x="151.69461"
       y="73.283348"
       ry="0.0011909548" /><rect
       style="fill:#000000;stroke-width:0.148938"
       id="rect1-9-2-0-4-37-3-0-5-3-7"
       width="47.306221"
       height="1.6168939"
       x="152.08031"
       y="77.005966"
       ry="0.0011909548" /><rect
       style="fill:#000000;stroke-width:0.148938"
       id="rect1-9-2-0-4-37-3-0-5-3-7-8"
       width="47.306221"
       height="1.6168939"
       x="152.20503"
       y="80.539436"
       ry="0.0011909548" /><rect
       style="fill:#000000;stroke-width:0.221604"
       id="rect1-9-4"
       width="29.25111"
       height="5.7889123"
       x="11.637456"
       y="36.804501"
       ry="1.1628786" /><rect
       style="fill:#000000;stroke-width:0.221604"
       id="rect1-9-4-1"
       width="29.25111"
       height="5.7889123"
       x="59.080379"
       y="36.408688"
       ry="1.1628786" /><rect
       style="fill:#000000;stroke-width:0.221604"
       id="rect1-9-4-1-8"
       width="29.25111"
       height="5.7889123"
       x="108.23365"
       y="36.002979"
       ry="1.1628786" /><rect
       style="fill:#000000;stroke-width:0.221604"
       id="rect1-9-4-1-8-9"
       width="29.25111"
       height="5.7889123"
       x="158.29163"
       y="35.708626"
       ry="1.1628786" /><rect
       style="fill:#000000;stroke-width:0.221604"
       id="rect1-9-4-1-8-9-5"
       width="29.25111"
       height="5.7889123"
       x="199.16875"
       y="35.786205"
       ry="1.1628786" /><rect
       style="fill:#000000;stroke-width:0.150248"
       id="rect1-9-4-1-8-9-5-9-4"
       width="24.162441"
       height="3.2215273"
       x="151.58665"
       y="61.819145"
       ry="0.64714152" /><rect
       style="fill:#000000;stroke-width:0.141864"
       id="rect1-9-2-0-4-37-3-0-3"
       width="42.919151"
       height="1.6168939"
       x="47.702415"
       y="90.451385"
       ry="0.0011909548" /><rect
       style="fill:#000000;stroke-width:0.148938"
       id="rect1-9-2-0-4-37-3-0-5-0"
       width="47.306221"
       height="1.6168939"
       x="43.384132"
       y="93.810341"
       ry="0.0011909548" /><rect
       style="fill:#000000;stroke-width:0.148938"
       id="rect1-9-2-0-4-37-3-0-5-3-2"
       width="47.306221"
       height="1.6168939"
       x="43.161888"
       y="97.342819"
       ry="0.0011909548" /><rect
       style="fill:#000000;stroke-width:0.148938"
       id="rect1-9-2-0-4-37-3-0-5-3-7-88"
       width="47.306221"
       height="1.6168939"
       x="43.547585"
       y="101.06544"
       ry="0.0011909548" /><rect
       style="fill:#000000;stroke-width:0.148938"
       id="rect1-9-2-0-4-37-3-0-5-3-7-8-5"
       width="47.306221"
       height="1.6168939"
       x="43.67231"
       y="104.59891"
       ry="0.0011909548" /><rect
       style="fill:#000000;stroke-width:0.150248"
       id="rect1-9-4-1-8-9-5-9-4-5"
       width="24.162441"
       height="3.2215273"
       x="43.053932"
       y="85.878616"
       ry="0.64714152" /><rect
       style="fill:#000000;stroke-width:0.619943"
       id="rect1-9-4-1-8-9-5-9-8"
       width="57.193882"
       height="23.170525"
       x="40.194965"
       y="61.045742"
       ry="4.6545029" /><rect
       style="fill:#000000;stroke-width:0.584049"
       id="rect1-9-4-1-8-9-5-9-8-4"
       width="50.762669"
       height="23.170525"
       x="99.438591"
       y="61.105152"
       ry="4.6545029" /><rect
       style="fill:#000000;stroke-width:0.570467"
       id="rect1-9-4-1-8-9-5-9-8-3"
       width="54.643196"
       height="20.535603"
       x="93.797882"
       y="85.461128"
       ry="4.1251988" /><rect
       style="fill:#000000;stroke-width:0.537438"
       id="rect1-9-4-1-8-9-5-9-8-4-4"
       width="48.498795"
       height="20.535603"
       x="150.3994"
       y="85.513779"
       ry="4.1251988" /><rect
       style="fill:#000000;stroke-width:0.188069"
       id="rect1-2"
       width="235.89488"
       height="0.51700819"
       x="1.1800545"
       y="107.61557"
       ry="0.00038081253" /><rect
       style="fill:#000000;stroke-width:0.185578"
       id="rect1-0"
       width="1.4953067"
       height="79.415955"
       x="1.2142441"
       y="28.381552"
       ry="0.05849538" /><rect
       style="fill:#000000;stroke-width:0.149918"
       id="rect1-0-0"
       width="1.4953067"
       height="51.827827"
       x="34.063061"
       y="55.863636"
       ry="0.038174801" /><rect
       style="fill:#000000;stroke-width:0.149227"
       id="rect1-0-0-7"
       width="1.4953067"
       height="51.351448"
       x="201.49654"
       y="56.556995"
       ry="0.037823912" /><rect
       style="fill:#000000;stroke-width:0.184592"
       id="rect1-0-8"
       width="1.4953067"
       height="78.573822"
       x="235.60072"
       y="29.341845"
       ry="0.057875093" /><path
       style="fill:#000000;fill-opacity:1;stroke-width:0.530309"
       d="m 12.170645,42.130282 c -0.278419,-0.22655 -0.387262,-0.927098 -0.387262,-2.492546 0,-1.935494 0.06086,-2.207484 0.547728,-2.4479 0.454902,-0.224631 2.826562,-0.270469 13.994214,-0.270469 12.668384,0 13.473507,0.02016 13.913473,0.348472 0.66553,0.496627 0.684552,4.431755 0.02358,4.878119 -0.39086,0.263954 -2.058773,0.29944 -14.073937,0.29944 -12.334827,0 -13.667343,-0.02995 -14.017793,-0.315116 z"
       id="path19" /><path
       style="fill:#000000;fill-opacity:1;stroke-width:0.530309"
       d="m 59.772399,41.764852 c -0.645392,-0.435841 -0.645392,-4.491308 0,-4.92715 0.390748,-0.263876 2.047258,-0.29944 13.94725,-0.29944 11.899993,0 13.556502,0.03556 13.947251,0.29944 0.645392,0.435842 0.645392,4.491309 0,4.92715 -0.390749,0.263877 -2.047258,0.299441 -13.947251,0.299441 -11.899992,0 -13.556502,-0.03556 -13.94725,-0.299441 z"
       id="path20" /></g></svg>
