<?xml version="1.0" encoding="UTF-8" standalone="no"?>
<!-- Created with Inkscape (http://www.inkscape.org/) -->

<svg
   width="900"
   height="500"
   viewBox="0 0 238.125 132.29167"
   version="1.1"
   id="svg1"
   inkscape:version="1.3.2 (091e20e, 2023-11-25, custom)"
   sodipodi:docname="gallery_banner.svg"
   xml:space="preserve"
   xmlns:inkscape="http://www.inkscape.org/namespaces/inkscape"
   xmlns:sodipodi="http://sodipodi.sourceforge.net/DTD/sodipodi-0.dtd"
   xmlns="http://www.w3.org/2000/svg"
   xmlns:svg="http://www.w3.org/2000/svg"><sodipodi:namedview
     id="namedview1"
     pagecolor="#505050"
     bordercolor="#ffffff"
     borderopacity="1"
     inkscape:showpageshadow="0"
     inkscape:pageopacity="0"
     inkscape:pagecheckerboard="1"
     inkscape:deskcolor="#505050"
     inkscape:document-units="mm"
     inkscape:zoom="0.49575348"
     inkscape:cx="613.208"
     inkscape:cy="460.91456"
     inkscape:window-width="1920"
     inkscape:window-height="1001"
     inkscape:window-x="-9"
     inkscape:window-y="-9"
     inkscape:window-maximized="1"
     inkscape:current-layer="g1" /><defs
     id="defs1" /><g
     inkscape:label="Шар 1"
     inkscape:groupmode="layer"
     id="layer1"><g
       id="g1"
       transform="matrix(1.0574109,0,0,0.71408289,-54.209695,18.215304)"
       style="fill:#000000"><rect
         style="fill:#000000;stroke-width:0.605102"
         id="rect1"
         width="223.03304"
         height="5.6607366"
         x="52.456161"
         y="10.189326"
         ry="0.0041695265" /><rect
         style="fill:#000000;stroke-width:0.512126"
         id="rect1-9"
         width="159.75911"
         height="5.6607366"
         x="83.485626"
         y="48.753284"
         ry="0.0041695265" /><rect
         style="fill:#000000;stroke-width:0.117452"
         id="rect1-9-2-0"
         width="21.007334"
         height="2.2642944"
         x="142.28345"
         y="101.72429"
         ry="0.0016678104" /><rect
         style="fill:#000000;stroke-width:0.118198"
         id="rect1-9-2-0-3"
         width="21.275003"
         height="2.2642944"
         x="142.1304"
         y="97.722969"
         ry="0.0016678104" /><rect
         style="fill:#000000;stroke-width:0.117701"
         id="rect1-9-2-0-2"
         width="21.096558"
         height="2.2642944"
         x="142.13641"
         y="93.382988"
         ry="0.0016678104" /><rect
         style="fill:#000000;stroke-width:0.117452"
         id="rect1-9-2-0-6"
         width="21.007334"
         height="2.2642944"
         x="142.08788"
         y="89.689232"
         ry="0.0016678104" /><rect
         style="fill:#000000;stroke-width:0.116952"
         id="rect1-9-2-0-9"
         width="20.828888"
         height="2.2642944"
         x="142.10728"
         y="85.49575"
         ry="0.0016678104" /><rect
         style="fill:#000000;stroke-width:0.116198"
         id="rect1-9-2-0-5"
         width="20.561218"
         height="2.2642944"
         x="142.0472"
         y="81.870972"
         ry="0.0016678104" /><rect
         style="fill:#000000;stroke-width:0.255024"
         id="rect1-9-4"
         width="27.662954"
         height="8.1067791"
         x="62.272057"
         y="26.032265"
         ry="1.6284925" /><rect
         style="fill:#000000;stroke-width:0.255024"
         id="rect1-9-4-1"
         width="27.662954"
         height="8.1067791"
         x="107.13912"
         y="25.47797"
         ry="1.6284925" /><rect
         style="fill:#000000;stroke-width:0.255024"
         id="rect1-9-4-1-8"
         width="27.662954"
         height="8.1067791"
         x="153.62367"
         y="24.909819"
         ry="1.6284925" /><rect
         style="fill:#000000;stroke-width:0.255024"
         id="rect1-9-4-1-8-9"
         width="27.662954"
         height="8.1067791"
         x="200.96381"
         y="24.497606"
         ry="1.6284925" /><rect
         style="fill:#000000;stroke-width:0.255024"
         id="rect1-9-4-1-8-9-5"
         width="27.662954"
         height="8.1067791"
         x="239.62155"
         y="24.606249"
         ry="1.6284925" /><rect
         style="fill:#000000;stroke-width:0.295482"
         id="rect1-9-4-1-8-9-5-9"
         width="37.136116"
         height="8.1067791"
         x="89.095131"
         y="63.440231"
         ry="1.6284925" /><rect
         style="fill:#000000;stroke-width:0.70451"
         id="rect1-9-4-1-8-9-5-9-8-7"
         width="52.743656"
         height="32.447948"
         x="88.656555"
         y="74.948624"
         ry="6.5181546" /><rect
         style="fill:#000000;stroke-width:0.216432"
         id="rect1-2"
         width="223.08725"
         height="0.72401708"
         x="52.382427"
         y="125.19592"
         ry="0.00053328899" /><rect
         style="fill:#000000;stroke-width:0.213565"
         id="rect1-0"
         width="1.4141208"
         height="111.21392"
         x="52.414761"
         y="14.236791"
         ry="0.081916794" /><rect
         style="fill:#000000;stroke-width:0.172527"
         id="rect1-0-0"
         width="1.4141208"
         height="72.579567"
         x="83.480087"
         y="52.722633"
         ry="0.053459901" /><rect
         style="fill:#000000;stroke-width:0.171732"
         id="rect1-0-0-7"
         width="1.4141208"
         height="71.912445"
         x="241.82295"
         y="53.693615"
         ry="0.052968517" /><rect
         style="fill:#000000;stroke-width:0.21243"
         id="rect1-0-8"
         width="1.4141208"
         height="110.0346"
         x="274.0755"
         y="15.58158"
         ry="0.081048146" /><path
         style="fill:#000000;fill-opacity:1;stroke-width:0.815503"
         d="m 171.68394,263.6607 c -0.69205,-0.40236 -1.65482,-1.31028 -2.13949,-2.01762 l -0.88123,-1.28607 v -10.90187 c 0,-10.7564 0.0109,-10.91948 0.82028,-12.22109 0.45116,-0.72556 1.41393,-1.68833 2.13949,-2.13949 l 1.31921,-0.82028 h 65.61106 c 61.79926,0 65.67732,0.0362 66.75152,0.62364 0.62726,0.34301 1.59003,1.21274 2.13949,1.93275 l 0.99904,1.30909 0.10474,10.54448 c 0.11851,11.92938 -0.0215,12.80196 -2.33743,14.56845 l -1.27756,0.97447 -65.99543,0.0825 c -65.97588,0.0825 -65.9958,0.0823 -67.25369,-0.649 z"
         id="path10"
         transform="matrix(0.26458333,0,0,0.26458333,44.53113,1.5095299)" /><path
         style="fill:#000000;fill-opacity:1;stroke-width:1.63101"
         d="m 739.51835,115.56494 c -1.70786,-1.70787 -1.75049,-2.01949 -1.75049,-12.79718 0,-10.648737 0.062,-11.118769 1.72091,-13.047654 l 1.7209,-2.000969 46.59594,-0.214745 c 32.74013,-0.150889 47.40762,0.0216 49.32557,0.580059 4.20302,1.22382 4.94465,3.739432 4.64566,15.758019 -0.22927,9.21582 -0.34578,9.903 -1.97259,11.63366 l -1.72893,1.8393 h -48.40324 -48.40323 z"
         id="path16"
         transform="matrix(0.26458333,0,0,0.26458333,44.53113,1.5095299)" /><path
         style="fill:#000000;fill-opacity:1;stroke-width:1.63101"
         d="m 593.66861,115.24548 -2.09931,-2.09931 v -11.14132 c 0,-10.87816 0.0413,-11.182655 1.75049,-12.891802 l 1.7505,-1.750493 h 48.40323 48.40323 l 1.72894,1.840365 c 1.68007,1.788349 1.72893,2.160688 1.72893,13.17372 0,10.84253 -0.0703,11.4037 -1.62415,12.95778 l -1.62415,1.62443 -48.1592,0.19297 -48.1592,0.19297 z"
         id="path17"
         transform="matrix(0.26458333,0,0,0.26458333,44.53113,1.5095299)" /><path
         style="fill:#000000;fill-opacity:1;stroke-width:1.63101"
         d="m 414.64984,116.65713 -2.08463,-2.08464 V 103.76532 92.958147 l 2.08463,-2.084632 2.08463,-2.084633 h 47.89169 47.89169 l 2.08463,2.084633 2.08463,2.084632 v 10.807173 10.80717 l -2.08463,2.08464 -2.08463,2.08463 h -47.89169 -47.89169 z"
         id="path18"
         transform="matrix(0.26458333,0,0,0.26458333,44.53113,1.5095299)" /><path
         style="fill:#000000;fill-opacity:1;stroke-width:2.30659"
         d="m 68.958109,120.87288 c -0.995161,-1.19909 -1.384201,-4.90698 -1.384201,-13.19265 0,-10.244261 0.21753,-11.683862 1.957757,-12.956347 1.625968,-1.188936 10.103047,-1.431547 50.019835,-1.431547 45.28089,0 48.15866,0.10673 49.73124,1.844405 2.37882,2.62857 2.44681,23.456579 0.0843,25.819109 -1.39706,1.39707 -7.35872,1.58489 -50.30479,1.58489 -44.088648,0 -48.851491,-0.15854 -50.104111,-1.66786 z"
         id="path19"
         transform="matrix(0.26458333,0,0,0.26458333,44.53113,1.5095299)" /><path
         style="fill:#000000;fill-opacity:1;stroke-width:2.30659"
         d="m 239.10213,118.93872 c -2.30684,-2.30684 -2.30684,-23.771782 0,-26.078626 1.39666,-1.396653 7.31756,-1.584889 49.85197,-1.584889 42.53441,0 48.45531,0.188236 49.85197,1.584889 2.30684,2.306844 2.30684,23.771786 0,26.078626 -1.39666,1.39666 -7.31756,1.58489 -49.85197,1.58489 -42.53441,0 -48.45531,-0.18823 -49.85197,-1.58489 z"
         id="path20"
         transform="matrix(0.26458333,0,0,0.26458333,44.53113,1.5095299)" /><rect
         style="fill:#000000;stroke-width:0.0973173"
         id="rect1-9-2-0-1"
         width="14.422047"
         height="2.2642944"
         x="148.71153"
         y="78.141754"
         ry="0.0016678104" /><rect
         style="fill:#000000;stroke-width:0.116952"
         id="rect1-9-2-0-9-3"
         width="20.828888"
         height="2.2642944"
         x="141.68889"
         y="121.18185"
         ry="0.0016678104" /><rect
         style="fill:#000000;stroke-width:0.116198"
         id="rect1-9-2-0-5-7"
         width="20.561218"
         height="2.2642944"
         x="141.6288"
         y="117.55708"
         ry="0.0016678104" /><rect
         style="fill:#000000;stroke-width:0.482597"
         id="rect1-9-4-1-8-9-5-9-8-7-8"
         width="52.743656"
         height="15.225888"
         x="88.238159"
         y="110.63473"
         ry="3.0585816" /><rect
         style="fill:#000000;stroke-width:0.0973173"
         id="rect1-9-2-0-1-1"
         width="14.422047"
         height="2.2642944"
         x="148.29314"
         y="113.82786"
         ry="0.0016678104" /><rect
         style="fill:#000000;stroke-width:0.126112"
         id="rect1-9-2-0-96"
         width="24.21937"
         height="2.2642944"
         x="217.58195"
         y="101.49497"
         ry="0.0016678104" /><rect
         style="fill:#000000;stroke-width:0.126112"
         id="rect1-9-2-0-3-2"
         width="24.21937"
         height="2.2642944"
         x="217.42891"
         y="97.493652"
         ry="0.0016678104" /><rect
         style="fill:#000000;stroke-width:0.126112"
         id="rect1-9-2-0-2-0"
         width="24.21937"
         height="2.2642944"
         x="217.43492"
         y="93.153671"
         ry="0.0016678104" /><rect
         style="fill:#000000;stroke-width:0.126112"
         id="rect1-9-2-0-6-9"
         width="24.21937"
         height="2.2642944"
         x="217.38638"
         y="89.459915"
         ry="0.0016678104" /><rect
         style="fill:#000000;stroke-width:0.126112"
         id="rect1-9-2-0-9-7"
         width="24.21937"
         height="2.2642944"
         x="217.40579"
         y="85.266434"
         ry="0.0016678104" /><rect
         style="fill:#000000;stroke-width:0.126112"
         id="rect1-9-2-0-5-9"
         width="24.21937"
         height="2.2642944"
         x="217.3457"
         y="81.641655"
         ry="0.0016678104" /><rect
         style="fill:#000000;stroke-width:0.70451"
         id="rect1-9-4-1-8-9-5-9-8-7-7"
         width="52.743656"
         height="32.447948"
         x="163.95506"
         y="74.719307"
         ry="6.5181546" /><rect
         style="fill:#000000;stroke-width:0.107201"
         id="rect1-9-2-0-1-5"
         width="17.500248"
         height="2.2642944"
         x="224.01004"
         y="77.912437"
         ry="0.0016678104" /><rect
         style="fill:#000000;stroke-width:0.126112"
         id="rect1-9-2-0-9-4"
         width="24.21937"
         height="2.2642944"
         x="218.23654"
         y="123.31739"
         ry="0.0016678104" /><rect
         style="fill:#000000;stroke-width:0.126112"
         id="rect1-9-2-0-5-0"
         width="24.21937"
         height="2.2642944"
         x="218.17645"
         y="119.69261"
         ry="0.0016678104" /><rect
         style="fill:#000000;stroke-width:0.442968"
         id="rect1-9-4-1-8-9-5-9-8-7-4"
         width="52.743656"
         height="12.827925"
         x="164.78581"
         y="112.77026"
         ry="2.5768776" /><rect
         style="fill:#000000;stroke-width:0.107201"
         id="rect1-9-2-0-1-7"
         width="17.500248"
         height="2.2642944"
         x="224.84079"
         y="115.96339"
         ry="0.0016678104" /></g></g></svg>
